<svg width="176" height="29" viewBox="0 0 176 29" fill="none" xmlns="http://www.w3.org/2000/svg">
<path d="M108.77 6.43395C108.77 4.64571 110.193 3.2016 111.993 3.2016C113.793 3.2016 115.252 4.65186 115.252 6.43395C115.252 8.22219 113.793 9.63558 111.993 9.63558C110.193 9.63558 108.77 8.21605 108.77 6.43395Z" fill="#ECEEF3"/>
<path d="M30.4843 12.9786V15.7992H25.2268V13.3534C25.2268 11.3993 24.1382 10.1149 22.2765 10.1149C20.4086 10.1149 19.1901 11.3931 19.1901 13.3534V22.9583H13.9326V13.3534C13.9326 11.3993 12.8812 10.1149 10.9823 10.1149C9.11437 10.1149 7.89588 11.3931 7.89588 13.3534V22.9583H2.63846V11.4976C2.63846 10.7233 2.43435 10.2501 1.89005 10.2501C1.65501 10.2501 1.48183 10.3177 1.38286 10.416L1.04267 10.2501L0.399414 6.7781L0.603526 6.40939C1.35194 5.97309 2.23023 5.7027 3.21368 5.7027C4.77235 5.7027 6.06506 6.34179 6.77636 7.58926C8.16803 6.44626 9.99885 5.7027 12.1389 5.7027C14.446 5.7027 16.3139 6.54458 17.5695 8.06244C18.9921 6.64905 21.0271 5.7027 23.4393 5.7027C27.6329 5.7027 30.4843 8.56634 30.4843 12.9786Z" fill="#ECEEF3"/>
<path d="M52.2995 14.5272C52.2995 19.6154 48.3966 23.3578 42.7681 23.3578C37.1025 23.3578 33.2367 19.6154 33.2367 14.5272C33.2367 9.439 37.1025 5.69659 42.7681 5.69659C48.3966 5.70274 52.2995 9.439 52.2995 14.5272ZM46.974 14.5272C46.974 11.9647 45.2422 10.1457 42.7681 10.1457C40.294 10.1457 38.5622 11.9647 38.5622 14.5272C38.5622 17.0897 40.294 18.9087 42.7681 18.9087C45.2422 18.9148 46.974 17.0897 46.974 14.5272Z" fill="#ECEEF3"/>
<path d="M78.673 5.7027C76.403 5.7027 74.4671 6.58146 73.0074 7.95797C72.3641 6.44012 70.3292 5.7027 66.5315 5.7027C65.4862 5.7027 66.7294 5.7027 65.6408 5.7027C63.7419 5.7027 61.2926 6.47699 60.037 7.79205C59.4246 6.40939 58.169 5.7027 56.7464 5.7027C55.6269 5.7027 54.7795 5.97309 54.0311 6.40939L53.827 6.7781L54.4703 10.2501L54.8105 10.416C54.9094 10.3177 55.0826 10.2501 55.2867 10.2501C55.862 10.2501 56.0661 10.7233 56.0661 11.4976V22.9583H61.2926V13.7529C61.2926 11.3931 62.4678 10.3423 64.1934 9.97973C65.0408 9.80152 68.7519 9.27918 68.7334 11.4914V28.0035H73.9599V21.8706C75.2835 22.7801 76.8793 23.3516 78.673 23.3516C83.6954 23.3516 87.19 19.474 87.19 14.521C87.19 9.57415 83.6583 5.7027 78.673 5.7027ZM77.7205 18.9148C75.3825 18.9148 73.5826 17.2986 73.5826 14.5333C73.5826 11.768 75.3825 10.1518 77.7205 10.1518C80.1946 10.1518 81.8584 12.0384 81.8584 14.5333C81.8584 17.0282 80.2008 18.9148 77.7205 18.9148Z" fill="#ECEEF3"/>
<path d="M106.964 12.9786V22.9522H101.738V13.3534C101.738 11.4669 100.618 10.1149 98.6142 10.1149C96.6473 10.1149 95.4227 11.4607 95.4227 13.3534V22.9583H90.2333V0.608371L95.0516 0L95.4227 0.233516V6.93789C96.5731 6.1636 98.0019 5.69042 99.7647 5.69042C104.15 5.70271 106.964 8.63395 106.964 12.9786Z" fill="#ECEEF3"/>
<path d="M136.054 5.7027C139.072 5.7027 141.688 6.74737 143.111 8.49874V8.86745L140.804 10.8892H140.433C139.245 9.77694 137.822 9.23616 136.363 9.23616C134.94 9.23616 134.223 9.77694 134.223 10.5512C134.223 11.3255 134.971 11.6635 136.87 12.3702C139.412 13.3165 143.519 14.3244 143.519 18.0975C143.519 21.4036 140.464 23.3577 136.227 23.3577C132.8 23.3577 129.986 22.0795 128.359 20.1254V19.7567L130.734 17.6366H131.105C132.126 18.7796 133.988 19.8304 135.887 19.8304C137.346 19.8304 138.262 19.1913 138.262 18.245C138.262 17.102 137.006 16.6964 135.342 16.1187C132.46 15.1785 129.064 14.1277 129.064 10.7602C129.064 7.68758 131.848 5.7027 136.054 5.7027Z" fill="#ECEEF3"/>
<path d="M175.138 12.9786V15.7992H169.88V13.3534C169.88 11.3993 168.792 10.1149 166.93 10.1149C165.062 10.1149 163.844 11.3931 163.844 13.3534V22.9583H158.586V13.3534C158.586 11.3993 157.535 10.1149 155.636 10.1149C153.768 10.1149 152.549 11.3931 152.549 13.3534V22.9583H147.292V11.4976C147.292 10.7233 147.088 10.2501 146.544 10.2501C146.309 10.2501 146.135 10.3177 146.036 10.416L145.696 10.2501L145.053 6.7781L145.257 6.40939C146.006 5.97309 146.884 5.7027 147.867 5.7027C149.426 5.7027 150.719 6.34179 151.43 7.58926C152.822 6.44626 154.652 5.7027 156.793 5.7027C159.1 5.7027 160.968 6.54458 162.223 8.06244C163.646 6.64905 165.681 5.7027 168.093 5.7027C172.286 5.7027 175.138 8.56634 175.138 12.9786Z" fill="#ECEEF3"/>
<path d="M24.6515 21.2991C24.6515 19.5109 26.0741 18.0668 27.874 18.0668C29.6739 18.0668 31.1336 19.517 31.1336 21.2991C31.1336 23.0874 29.6739 24.5008 27.874 24.5008C26.0741 24.5008 24.6515 23.0874 24.6515 21.2991Z" fill="#ECEEF3"/>
<path d="M169.163 21.2991C169.163 19.5109 170.585 18.0668 172.385 18.0668C174.185 18.0668 175.645 19.517 175.645 21.2991C175.645 23.0874 174.185 24.5008 172.385 24.5008C170.591 24.5008 169.163 23.0874 169.163 21.2991Z" fill="#ECEEF3"/>
<path d="M120.726 5.99152V6.05297H120.714V15.3199C120.714 17.2187 119.483 18.5461 117.64 18.5461C115.797 18.5461 114.665 17.3601 114.665 15.4243V11.221H109.401V15.793C109.401 20.1377 112.098 22.989 116.817 22.989C118.234 22.989 119.57 22.5834 120.726 21.9013V27.9973H126.071V5.99152H120.726Z" fill="#ECEEF3"/>
</svg>
