<?xml version="1.0" encoding="utf-8"?>
<!-- Generator: Adobe Illustrator 25.2.2, SVG Export Plug-In . SVG Version: 6.00 Build 0)  -->
<svg version="1.1" id="Ebene_1" xmlns="http://www.w3.org/2000/svg" xmlns:xlink="http://www.w3.org/1999/xlink" x="0px" y="0px"
	 viewBox="0 0 577.1 374" style="enable-background:new 0 0 577.1 374;" xml:space="preserve">
<style type="text/css">
	.st0{fill:#009EE3;}
	.st1{fill:#E5007D;}
	.st2{fill:#2F2483;}
</style>
<g>
	<g id="Layer_1">
		<path class="st0" d="M118.7,45.6c-3.1-2.1-6.4-3.9-9.8-5.5c2.2,2.7,4.1,5.6,5.8,8.6C116.1,47.7,117.4,46.6,118.7,45.6z"/>
		<path class="st0" d="M190.5,94.6c-33.6,0-55.6,23.2-55.6,58.7v174.1H64.3V346h94.6V171.9c0-35.4,22-58.7,55.6-58.7
			c6.7-0.1,13.3,0.9,19.6,3C225.3,102.5,210.5,94.6,190.5,94.6z"/>
		<path class="st0" d="M310.8,55.4c-2.8-1.9-5.6-3.8-8.5-5.5c2.3,2.3,4.5,4.8,6.6,7.4C309.6,56.7,310.2,56,310.8,55.4z"/>
		<path class="st0" d="M32.4,98.2l3.2,17.5l4.7,2.3C40.1,107.9,37.8,100.8,32.4,98.2z"/>
		<path class="st0" d="M506.1,50.2c22.5,23,35.4,56.1,35.4,96.3v51.1h-70.6v18.6h94.6v-51.1C565.5,112.3,543.1,71.7,506.1,50.2z"/>
		<path class="st0" d="M393.8,94.6c-33.6,0-55.6,23.2-55.6,58.7v174.1h-70.6V346h94.6V171.9c0-35.4,22-58.7,55.6-58.7
			c6.6-0.1,13.2,1,19.5,3C428.3,102.5,413.4,94.6,393.8,94.6z"/>
		<path class="st1" d="M234.1,116.2c6.2,9.7,9.5,22.3,9.5,37v174.1h24V171.9C267.6,143.9,255.8,123.6,234.1,116.2z"/>
		<path class="st1" d="M138.8,67.4c25-20.8,58-34.2,96.5-34.2c25.6,0,48.2,5.8,67.1,16.8c-22.3-22.8-53.4-35.4-91.1-35.4
			c-36.5,0-68,12.1-92.5,31C127,51.2,133.9,58.7,138.8,67.4z"/>
		<path class="st1" d="M332.9,76c25.6-25.6,62.3-42.8,105.6-42.8c25.7,0,48.6,6,67.6,17c-22.3-22.8-53.9-35.7-91.6-35.7
			c-42.3,0-78.1,16.3-103.7,40.9C319.1,61.2,326.5,68.2,332.9,76z"/>
		<path class="st1" d="M50.8,115.7c-4.3,0-7.3,1.2-9.2,3l-1.4-0.7c0,0.5,0,1.1,0,1.6v207.7h24V138.3
			C64.3,124.2,60.6,115.7,50.8,115.7z"/>
		<path class="st1" d="M27.6,46c14.2-8.4,30.5-12.9,47-12.8c11.8-0.2,23.5,2.2,34.3,6.9c-13.4-16.9-34-25.6-58.3-25.6
			c-16.5,0-32.8,4.4-47,12.8L0,34.1L11.6,97l6.1,3c1.8-1.8,4.9-3,9.2-3c1.9,0,3.8,0.4,5.5,1.2L24,52.8L27.6,46z"/>
		<path class="st1" d="M437.2,116.3c6.3,9.7,9.7,22.3,9.7,37v44.3h24v-25.7C470.9,144,458.8,123.7,437.2,116.3z"/>
		<path class="st0" d="M541.5,146.5c0-40.2-12.9-73.3-35.4-96.3c-19-11-41.9-17-67.6-17c-43.3,0-80,17.1-105.6,42.8
			c-6.4-7.8-13.8-14.7-22-20.5c-0.7,0.6-1.3,1.3-1.9,1.9c-2.1-2.6-4.3-5-6.6-7.4c-18.9-10.9-41.5-16.8-67.1-16.8
			c-38.5,0-71.4,13.4-96.5,34.2c-4.9-8.7-11.7-16.2-20-21.8c-1.3,1-2.7,2.1-4,3.2c-1.7-3-3.7-5.9-5.8-8.6
			c-10.8-4.7-22.5-7.1-34.3-6.9c-16.5,0-32.8,4.4-47,12.8L24,52.8l8.4,45.4c5.4,2.6,7.7,9.7,7.9,19.8l1.4,0.7c1.8-1.8,4.9-3,9.2-3
			c9.8,0,13.4,8.6,13.4,22.6v189.1h70.6V153.2c0-35.4,22-58.7,55.6-58.7c20,0,34.8,8,43.6,21.7c21.7,7.4,33.5,27.7,33.5,55.6v155.5
			h70.6V153.2c0-35.4,22-58.7,55.6-58.7c19.7,0,34.5,8,43.4,21.7c21.5,7.4,33.6,27.7,33.6,55.6v25.7h70.6L541.5,146.5z"/>
		<path class="st2" d="M541.5,146.5c0-40.2-12.9-73.3-35.4-96.3c-19-11-41.9-17-67.6-17c-43.3,0-80,17.1-105.6,42.8
			c-6.4-7.8-13.8-14.7-22-20.5c-0.7,0.6-1.3,1.3-1.9,1.9c-2.1-2.6-4.3-5-6.6-7.4c-18.9-10.9-41.5-16.8-67.1-16.8
			c-38.5,0-71.4,13.4-96.5,34.2c-4.9-8.7-11.7-16.2-20-21.8c-1.3,1-2.7,2.1-4,3.2c-1.7-3-3.7-5.9-5.8-8.6
			c-10.8-4.7-22.5-7.1-34.3-6.9c-16.5,0-32.8,4.4-47,12.8L24,52.8l8.4,45.4c5.4,2.6,7.7,9.7,7.9,19.8l1.4,0.7c1.8-1.8,4.9-3,9.2-3
			c9.8,0,13.4,8.6,13.4,22.6v189.1h70.6V153.2c0-35.4,22-58.7,55.6-58.7c20,0,34.8,8,43.6,21.7c21.7,7.4,33.5,27.7,33.5,55.6v155.5
			h70.6V153.2c0-35.4,22-58.7,55.6-58.7c19.7,0,34.5,8,43.4,21.7c21.5,7.4,33.6,27.7,33.6,55.6v25.7h70.6L541.5,146.5z"/>
		<path class="st1" d="M518.5,257.3c7.8,0,15.5,1.5,22.7,4.6c-11.1-14.6-28.4-23.2-46.7-23.2c-32.4,0-58,26.3-58,58.6
			c-0.2,23.4,13.9,44.6,35.5,53.6c-7.5-10.1-11.6-22.4-11.5-35C460.5,283.6,486.2,257.3,518.5,257.3z"/>
		<path class="st0" d="M541.2,261.9c7.7,10.2,11.9,22.6,11.9,35.4c0,32.4-26.2,58-58.6,58c-7.7,0-15.4-1.5-22.5-4.4
			c11,14.6,28.2,23.2,46.5,23.1c32.4,0,58.6-25.6,58.6-58C577.1,292.4,563,271.1,541.2,261.9z"/>
		<path class="st2" d="M553.1,297.3c0-12.8-4.2-25.2-11.9-35.4c-7.2-3-14.9-4.6-22.7-4.6c-32.4,0-58,26.3-58,58.6
			c-0.1,12.6,4,24.9,11.5,35c7.1,2.9,14.8,4.5,22.5,4.4C526.9,355.3,553.1,329.7,553.1,297.3z"/>
	</g>
</g>
</svg>
